# xmcd
# 
# Track frame offsets:
#     150
#     31447
#     56325
#     85605
#     121045
#     156267
#     176542
# 
# Disc length: 2782
# 
# Revision: 4
# Processed by: cddbd v1.5.2PL0 Copyright (c) Steve Scherf et al.
# Submitted via: BonkEnc v1.0.8
# 
DISCID=490adc07
DTITLE=Al Foster - Mixed Roots
DYEAR=1978
DGENRE=Contemporary Jazz
TTITLE0=Mixed Roots
TTITLE1=Ya' Damn Right
TTITLE2=Pauletta
TTITLE3=Double Stuff
TTITLE4=Dr. Jekyll and Mr. Hyde
TTITLE5=El Cielo Verde
TTITLE6=Soft Distant
EXTD=YEAR: 1978
EXTT0=
EXTT1=
EXTT2=
EXTT3=
EXTT4=
EXTT5=
EXTT6=
PLAYORDER=
